<mxfile host="app.diagrams.net" modified="2021-10-29T06:40:25.474Z" agent="5.0 (Windows NT 10.0; Win64; x64) AppleWebKit/537.36 (KHTML, like Gecko) Chrome/95.0.4638.54 Safari/537.36" etag="qh5jZM1qxc9uzjroNK0P" version="15.5.8" type="github">
  <diagram id="R2lEEEUBdFMjLlhIrx00" name="Page-1">
    <mxGraphModel dx="1718" dy="484" grid="1" gridSize="10" guides="1" tooltips="1" connect="1" arrows="1" fold="1" page="1" pageScale="1" pageWidth="850" pageHeight="1100" math="0" shadow="0" extFonts="Permanent Marker^https://fonts.googleapis.com/css?family=Permanent+Marker">
      <root>
        <mxCell id="0" />
        <mxCell id="1" parent="0" />
        <mxCell id="Opuij0zFXK9TqKXAzzYL-28" value="" style="shape=table;html=1;whiteSpace=wrap;startSize=0;container=1;collapsible=0;childLayout=tableLayout;align=center;verticalAlign=top;shadow=0;" vertex="1" parent="1">
          <mxGeometry x="-250" y="160" width="692" height="320" as="geometry" />
        </mxCell>
        <mxCell id="Opuij0zFXK9TqKXAzzYL-15" value="" style="shape=partialRectangle;html=1;whiteSpace=wrap;collapsible=0;dropTarget=0;pointerEvents=0;fillColor=none;top=0;left=0;bottom=0;right=0;points=[[0,0.5],[1,0.5]];portConstraint=eastwest;fontStyle=1" vertex="1" parent="Opuij0zFXK9TqKXAzzYL-28">
          <mxGeometry width="692" height="53" as="geometry" />
        </mxCell>
        <mxCell id="Opuij0zFXK9TqKXAzzYL-106" value="&lt;b&gt;UnitID&lt;/b&gt;" style="shape=partialRectangle;html=1;whiteSpace=wrap;connectable=0;fillColor=none;top=0;left=0;bottom=0;right=0;overflow=hidden;pointerEvents=1;" vertex="1" parent="Opuij0zFXK9TqKXAzzYL-15">
          <mxGeometry width="77" height="53" as="geometry">
            <mxRectangle width="77" height="53" as="alternateBounds" />
          </mxGeometry>
        </mxCell>
        <mxCell id="Opuij0zFXK9TqKXAzzYL-98" value="&lt;b&gt;StudentID&lt;/b&gt;" style="shape=partialRectangle;html=1;whiteSpace=wrap;connectable=0;fillColor=none;top=0;left=0;bottom=0;right=0;overflow=hidden;pointerEvents=1;" vertex="1" parent="Opuij0zFXK9TqKXAzzYL-15">
          <mxGeometry x="77" width="77" height="53" as="geometry">
            <mxRectangle width="77" height="53" as="alternateBounds" />
          </mxGeometry>
        </mxCell>
        <mxCell id="Opuij0zFXK9TqKXAzzYL-90" value="&lt;b&gt;Date&lt;/b&gt;" style="shape=partialRectangle;html=1;whiteSpace=wrap;connectable=0;fillColor=none;top=0;left=0;bottom=0;right=0;overflow=hidden;pointerEvents=1;" vertex="1" parent="Opuij0zFXK9TqKXAzzYL-15">
          <mxGeometry x="154" width="77" height="53" as="geometry">
            <mxRectangle width="77" height="53" as="alternateBounds" />
          </mxGeometry>
        </mxCell>
        <mxCell id="Opuij0zFXK9TqKXAzzYL-82" value="&lt;b&gt;Tutor&lt;br&gt;ID&lt;/b&gt;" style="shape=partialRectangle;html=1;whiteSpace=wrap;connectable=0;fillColor=none;top=0;left=0;bottom=0;right=0;overflow=hidden;pointerEvents=1;" vertex="1" parent="Opuij0zFXK9TqKXAzzYL-15">
          <mxGeometry x="231" width="77" height="53" as="geometry">
            <mxRectangle width="77" height="53" as="alternateBounds" />
          </mxGeometry>
        </mxCell>
        <mxCell id="Opuij0zFXK9TqKXAzzYL-74" value="&lt;b&gt;Topic&amp;nbsp;&lt;/b&gt;" style="shape=partialRectangle;html=1;whiteSpace=wrap;connectable=0;fillColor=none;top=0;left=0;bottom=0;right=0;overflow=hidden;pointerEvents=1;" vertex="1" parent="Opuij0zFXK9TqKXAzzYL-15">
          <mxGeometry x="308" width="77" height="53" as="geometry">
            <mxRectangle width="77" height="53" as="alternateBounds" />
          </mxGeometry>
        </mxCell>
        <mxCell id="Opuij0zFXK9TqKXAzzYL-16" value="&lt;b&gt;Room&lt;/b&gt;" style="shape=partialRectangle;html=1;whiteSpace=wrap;connectable=0;fillColor=none;top=0;left=0;bottom=0;right=0;overflow=hidden;pointerEvents=1;" vertex="1" parent="Opuij0zFXK9TqKXAzzYL-15">
          <mxGeometry x="385" width="75" height="53" as="geometry">
            <mxRectangle width="75" height="53" as="alternateBounds" />
          </mxGeometry>
        </mxCell>
        <mxCell id="Opuij0zFXK9TqKXAzzYL-17" value="&lt;b&gt;Grade&lt;/b&gt;" style="shape=partialRectangle;html=1;whiteSpace=wrap;connectable=0;fillColor=none;top=0;left=0;bottom=0;right=0;overflow=hidden;pointerEvents=1;" vertex="1" parent="Opuij0zFXK9TqKXAzzYL-15">
          <mxGeometry x="460" width="70" height="53" as="geometry">
            <mxRectangle width="70" height="53" as="alternateBounds" />
          </mxGeometry>
        </mxCell>
        <mxCell id="Opuij0zFXK9TqKXAzzYL-18" value="&lt;b&gt;Book&lt;/b&gt;" style="shape=partialRectangle;html=1;whiteSpace=wrap;connectable=0;fillColor=none;top=0;left=0;bottom=0;right=0;overflow=hidden;pointerEvents=1;" vertex="1" parent="Opuij0zFXK9TqKXAzzYL-15">
          <mxGeometry x="530" width="80" height="53" as="geometry">
            <mxRectangle width="80" height="53" as="alternateBounds" />
          </mxGeometry>
        </mxCell>
        <mxCell id="Opuij0zFXK9TqKXAzzYL-122" value="&lt;b&gt;TutEmail&lt;/b&gt;" style="shape=partialRectangle;html=1;whiteSpace=wrap;connectable=0;fillColor=none;top=0;left=0;bottom=0;right=0;overflow=hidden;pointerEvents=1;" vertex="1" parent="Opuij0zFXK9TqKXAzzYL-15">
          <mxGeometry x="610" width="82" height="53" as="geometry">
            <mxRectangle width="82" height="53" as="alternateBounds" />
          </mxGeometry>
        </mxCell>
        <mxCell id="Opuij0zFXK9TqKXAzzYL-66" value="" style="shape=partialRectangle;html=1;whiteSpace=wrap;collapsible=0;dropTarget=0;pointerEvents=0;fillColor=none;top=0;left=0;bottom=0;right=0;points=[[0,0.5],[1,0.5]];portConstraint=eastwest;" vertex="1" parent="Opuij0zFXK9TqKXAzzYL-28">
          <mxGeometry y="53" width="692" height="53" as="geometry" />
        </mxCell>
        <mxCell id="Opuij0zFXK9TqKXAzzYL-107" value="U1" style="shape=partialRectangle;html=1;whiteSpace=wrap;connectable=0;fillColor=none;top=0;left=0;bottom=0;right=0;overflow=hidden;pointerEvents=1;" vertex="1" parent="Opuij0zFXK9TqKXAzzYL-66">
          <mxGeometry width="77" height="53" as="geometry">
            <mxRectangle width="77" height="53" as="alternateBounds" />
          </mxGeometry>
        </mxCell>
        <mxCell id="Opuij0zFXK9TqKXAzzYL-99" value="&lt;span&gt;St1&lt;/span&gt;" style="shape=partialRectangle;html=1;whiteSpace=wrap;connectable=0;fillColor=none;top=0;left=0;bottom=0;right=0;overflow=hidden;pointerEvents=1;" vertex="1" parent="Opuij0zFXK9TqKXAzzYL-66">
          <mxGeometry x="77" width="77" height="53" as="geometry">
            <mxRectangle width="77" height="53" as="alternateBounds" />
          </mxGeometry>
        </mxCell>
        <mxCell id="Opuij0zFXK9TqKXAzzYL-91" value="23.02.03" style="shape=partialRectangle;html=1;whiteSpace=wrap;connectable=0;fillColor=none;top=0;left=0;bottom=0;right=0;overflow=hidden;pointerEvents=1;" vertex="1" parent="Opuij0zFXK9TqKXAzzYL-66">
          <mxGeometry x="154" width="77" height="53" as="geometry">
            <mxRectangle width="77" height="53" as="alternateBounds" />
          </mxGeometry>
        </mxCell>
        <mxCell id="Opuij0zFXK9TqKXAzzYL-83" value="Tut1" style="shape=partialRectangle;html=1;whiteSpace=wrap;connectable=0;fillColor=none;top=0;left=0;bottom=0;right=0;overflow=hidden;pointerEvents=1;" vertex="1" parent="Opuij0zFXK9TqKXAzzYL-66">
          <mxGeometry x="231" width="77" height="53" as="geometry">
            <mxRectangle width="77" height="53" as="alternateBounds" />
          </mxGeometry>
        </mxCell>
        <mxCell id="Opuij0zFXK9TqKXAzzYL-75" value="GMT" style="shape=partialRectangle;html=1;whiteSpace=wrap;connectable=0;fillColor=none;top=0;left=0;bottom=0;right=0;overflow=hidden;pointerEvents=1;" vertex="1" parent="Opuij0zFXK9TqKXAzzYL-66">
          <mxGeometry x="308" width="77" height="53" as="geometry">
            <mxRectangle width="77" height="53" as="alternateBounds" />
          </mxGeometry>
        </mxCell>
        <mxCell id="Opuij0zFXK9TqKXAzzYL-67" value="629" style="shape=partialRectangle;html=1;whiteSpace=wrap;connectable=0;fillColor=none;top=0;left=0;bottom=0;right=0;overflow=hidden;pointerEvents=1;" vertex="1" parent="Opuij0zFXK9TqKXAzzYL-66">
          <mxGeometry x="385" width="75" height="53" as="geometry">
            <mxRectangle width="75" height="53" as="alternateBounds" />
          </mxGeometry>
        </mxCell>
        <mxCell id="Opuij0zFXK9TqKXAzzYL-68" value="4.7" style="shape=partialRectangle;html=1;whiteSpace=wrap;connectable=0;fillColor=none;top=0;left=0;bottom=0;right=0;overflow=hidden;pointerEvents=1;" vertex="1" parent="Opuij0zFXK9TqKXAzzYL-66">
          <mxGeometry x="460" width="70" height="53" as="geometry">
            <mxRectangle width="70" height="53" as="alternateBounds" />
          </mxGeometry>
        </mxCell>
        <mxCell id="Opuij0zFXK9TqKXAzzYL-69" value="Deumlich&lt;br&gt;" style="shape=partialRectangle;html=1;whiteSpace=wrap;connectable=0;fillColor=none;top=0;left=0;bottom=0;right=0;overflow=hidden;pointerEvents=1;" vertex="1" parent="Opuij0zFXK9TqKXAzzYL-66">
          <mxGeometry x="530" width="80" height="53" as="geometry">
            <mxRectangle width="80" height="53" as="alternateBounds" />
          </mxGeometry>
        </mxCell>
        <mxCell id="Opuij0zFXK9TqKXAzzYL-123" value="tut1@fhbb.ch" style="shape=partialRectangle;html=1;whiteSpace=wrap;connectable=0;fillColor=none;top=0;left=0;bottom=0;right=0;overflow=hidden;pointerEvents=1;" vertex="1" parent="Opuij0zFXK9TqKXAzzYL-66">
          <mxGeometry x="610" width="82" height="53" as="geometry">
            <mxRectangle width="82" height="53" as="alternateBounds" />
          </mxGeometry>
        </mxCell>
        <mxCell id="Opuij0zFXK9TqKXAzzYL-19" value="" style="shape=partialRectangle;html=1;whiteSpace=wrap;collapsible=0;dropTarget=0;pointerEvents=0;fillColor=none;top=0;left=0;bottom=0;right=0;points=[[0,0.5],[1,0.5]];portConstraint=eastwest;" vertex="1" parent="Opuij0zFXK9TqKXAzzYL-28">
          <mxGeometry y="106" width="692" height="54" as="geometry" />
        </mxCell>
        <mxCell id="Opuij0zFXK9TqKXAzzYL-108" value="&lt;p style=&quot;line-height: 1.4&quot;&gt;&lt;/p&gt;&lt;div&gt;&lt;span style=&quot;font-family: &amp;#34;helvetica&amp;#34;&quot;&gt;U2&lt;/span&gt;&lt;br&gt;&lt;/div&gt;&lt;p&gt;&lt;/p&gt;" style="shape=partialRectangle;html=1;whiteSpace=wrap;connectable=0;fillColor=none;top=0;left=0;bottom=0;right=0;overflow=hidden;pointerEvents=1;verticalAlign=middle;align=center;" vertex="1" parent="Opuij0zFXK9TqKXAzzYL-19">
          <mxGeometry width="77" height="54" as="geometry">
            <mxRectangle width="77" height="54" as="alternateBounds" />
          </mxGeometry>
        </mxCell>
        <mxCell id="Opuij0zFXK9TqKXAzzYL-100" value="&lt;span style=&quot;color: rgb(0 , 0 , 0) ; font-family: &amp;#34;helvetica&amp;#34; ; font-size: 12px ; font-style: normal ; font-weight: 400 ; letter-spacing: normal ; text-align: center ; text-indent: 0px ; text-transform: none ; word-spacing: 0px ; background-color: rgb(248 , 249 , 250) ; display: inline ; float: none&quot;&gt;St1&lt;/span&gt;" style="shape=partialRectangle;html=1;whiteSpace=wrap;connectable=0;fillColor=none;top=0;left=0;bottom=0;right=0;overflow=hidden;pointerEvents=1;" vertex="1" parent="Opuij0zFXK9TqKXAzzYL-19">
          <mxGeometry x="77" width="77" height="54" as="geometry">
            <mxRectangle width="77" height="54" as="alternateBounds" />
          </mxGeometry>
        </mxCell>
        <mxCell id="Opuij0zFXK9TqKXAzzYL-92" value="18.11.02" style="shape=partialRectangle;html=1;whiteSpace=wrap;connectable=0;fillColor=none;top=0;left=0;bottom=0;right=0;overflow=hidden;pointerEvents=1;" vertex="1" parent="Opuij0zFXK9TqKXAzzYL-19">
          <mxGeometry x="154" width="77" height="54" as="geometry">
            <mxRectangle width="77" height="54" as="alternateBounds" />
          </mxGeometry>
        </mxCell>
        <mxCell id="Opuij0zFXK9TqKXAzzYL-84" value="Tut3" style="shape=partialRectangle;html=1;whiteSpace=wrap;connectable=0;fillColor=none;top=0;left=0;bottom=0;right=0;overflow=hidden;pointerEvents=1;" vertex="1" parent="Opuij0zFXK9TqKXAzzYL-19">
          <mxGeometry x="231" width="77" height="54" as="geometry">
            <mxRectangle width="77" height="54" as="alternateBounds" />
          </mxGeometry>
        </mxCell>
        <mxCell id="Opuij0zFXK9TqKXAzzYL-76" value="Gln" style="shape=partialRectangle;html=1;whiteSpace=wrap;connectable=0;fillColor=none;top=0;left=0;bottom=0;right=0;overflow=hidden;pointerEvents=1;" vertex="1" parent="Opuij0zFXK9TqKXAzzYL-19">
          <mxGeometry x="308" width="77" height="54" as="geometry">
            <mxRectangle width="77" height="54" as="alternateBounds" />
          </mxGeometry>
        </mxCell>
        <mxCell id="Opuij0zFXK9TqKXAzzYL-20" value="631" style="shape=partialRectangle;html=1;whiteSpace=wrap;connectable=0;fillColor=none;top=0;left=0;bottom=0;right=0;overflow=hidden;pointerEvents=1;" vertex="1" parent="Opuij0zFXK9TqKXAzzYL-19">
          <mxGeometry x="385" width="75" height="54" as="geometry">
            <mxRectangle width="75" height="54" as="alternateBounds" />
          </mxGeometry>
        </mxCell>
        <mxCell id="Opuij0zFXK9TqKXAzzYL-21" value="5.1" style="shape=partialRectangle;html=1;whiteSpace=wrap;connectable=0;fillColor=none;top=0;left=0;bottom=0;right=0;overflow=hidden;pointerEvents=1;" vertex="1" parent="Opuij0zFXK9TqKXAzzYL-19">
          <mxGeometry x="460" width="70" height="54" as="geometry">
            <mxRectangle width="70" height="54" as="alternateBounds" />
          </mxGeometry>
        </mxCell>
        <mxCell id="Opuij0zFXK9TqKXAzzYL-22" value="Zehnder" style="shape=partialRectangle;html=1;whiteSpace=wrap;connectable=0;fillColor=none;top=0;left=0;bottom=0;right=0;overflow=hidden;pointerEvents=1;" vertex="1" parent="Opuij0zFXK9TqKXAzzYL-19">
          <mxGeometry x="530" width="80" height="54" as="geometry">
            <mxRectangle width="80" height="54" as="alternateBounds" />
          </mxGeometry>
        </mxCell>
        <mxCell id="Opuij0zFXK9TqKXAzzYL-124" value="tut3@fhbb.ch" style="shape=partialRectangle;html=1;whiteSpace=wrap;connectable=0;fillColor=none;top=0;left=0;bottom=0;right=0;overflow=hidden;pointerEvents=1;" vertex="1" parent="Opuij0zFXK9TqKXAzzYL-19">
          <mxGeometry x="610" width="82" height="54" as="geometry">
            <mxRectangle width="82" height="54" as="alternateBounds" />
          </mxGeometry>
        </mxCell>
        <mxCell id="Opuij0zFXK9TqKXAzzYL-23" value="" style="shape=partialRectangle;html=1;whiteSpace=wrap;collapsible=0;dropTarget=0;pointerEvents=0;fillColor=none;top=0;left=0;bottom=0;right=0;points=[[0,0.5],[1,0.5]];portConstraint=eastwest;" vertex="1" parent="Opuij0zFXK9TqKXAzzYL-28">
          <mxGeometry y="160" width="692" height="53" as="geometry" />
        </mxCell>
        <mxCell id="Opuij0zFXK9TqKXAzzYL-109" value="&lt;span style=&quot;color: rgb(0 , 0 , 0) ; font-family: &amp;#34;helvetica&amp;#34; ; font-size: 12px ; font-style: normal ; font-weight: 400 ; letter-spacing: normal ; text-align: center ; text-indent: 0px ; text-transform: none ; word-spacing: 0px ; background-color: rgb(248 , 249 , 250) ; display: inline ; float: none&quot;&gt;U1&lt;/span&gt;" style="shape=partialRectangle;html=1;whiteSpace=wrap;connectable=0;fillColor=none;top=0;left=0;bottom=0;right=0;overflow=hidden;pointerEvents=1;" vertex="1" parent="Opuij0zFXK9TqKXAzzYL-23">
          <mxGeometry width="77" height="53" as="geometry">
            <mxRectangle width="77" height="53" as="alternateBounds" />
          </mxGeometry>
        </mxCell>
        <mxCell id="Opuij0zFXK9TqKXAzzYL-101" value="&lt;span&gt;St4&lt;/span&gt;" style="shape=partialRectangle;html=1;whiteSpace=wrap;connectable=0;fillColor=none;top=0;left=0;bottom=0;right=0;overflow=hidden;pointerEvents=1;" vertex="1" parent="Opuij0zFXK9TqKXAzzYL-23">
          <mxGeometry x="77" width="77" height="53" as="geometry">
            <mxRectangle width="77" height="53" as="alternateBounds" />
          </mxGeometry>
        </mxCell>
        <mxCell id="Opuij0zFXK9TqKXAzzYL-93" value="23.02.03" style="shape=partialRectangle;html=1;whiteSpace=wrap;connectable=0;fillColor=none;top=0;left=0;bottom=0;right=0;overflow=hidden;pointerEvents=1;" vertex="1" parent="Opuij0zFXK9TqKXAzzYL-23">
          <mxGeometry x="154" width="77" height="53" as="geometry">
            <mxRectangle width="77" height="53" as="alternateBounds" />
          </mxGeometry>
        </mxCell>
        <mxCell id="Opuij0zFXK9TqKXAzzYL-85" value="Tut1" style="shape=partialRectangle;html=1;whiteSpace=wrap;connectable=0;fillColor=none;top=0;left=0;bottom=0;right=0;overflow=hidden;pointerEvents=1;" vertex="1" parent="Opuij0zFXK9TqKXAzzYL-23">
          <mxGeometry x="231" width="77" height="53" as="geometry">
            <mxRectangle width="77" height="53" as="alternateBounds" />
          </mxGeometry>
        </mxCell>
        <mxCell id="Opuij0zFXK9TqKXAzzYL-77" value="GMT" style="shape=partialRectangle;html=1;whiteSpace=wrap;connectable=0;fillColor=none;top=0;left=0;bottom=0;right=0;overflow=hidden;pointerEvents=1;" vertex="1" parent="Opuij0zFXK9TqKXAzzYL-23">
          <mxGeometry x="308" width="77" height="53" as="geometry">
            <mxRectangle width="77" height="53" as="alternateBounds" />
          </mxGeometry>
        </mxCell>
        <mxCell id="Opuij0zFXK9TqKXAzzYL-24" value="629" style="shape=partialRectangle;html=1;whiteSpace=wrap;connectable=0;fillColor=none;top=0;left=0;bottom=0;right=0;overflow=hidden;pointerEvents=1;" vertex="1" parent="Opuij0zFXK9TqKXAzzYL-23">
          <mxGeometry x="385" width="75" height="53" as="geometry">
            <mxRectangle width="75" height="53" as="alternateBounds" />
          </mxGeometry>
        </mxCell>
        <mxCell id="Opuij0zFXK9TqKXAzzYL-25" value="4.3" style="shape=partialRectangle;html=1;whiteSpace=wrap;connectable=0;fillColor=none;top=0;left=0;bottom=0;right=0;overflow=hidden;pointerEvents=1;" vertex="1" parent="Opuij0zFXK9TqKXAzzYL-23">
          <mxGeometry x="460" width="70" height="53" as="geometry">
            <mxRectangle width="70" height="53" as="alternateBounds" />
          </mxGeometry>
        </mxCell>
        <mxCell id="Opuij0zFXK9TqKXAzzYL-26" value="Deumlich" style="shape=partialRectangle;html=1;whiteSpace=wrap;connectable=0;fillColor=none;top=0;left=0;bottom=0;right=0;overflow=hidden;pointerEvents=1;" vertex="1" parent="Opuij0zFXK9TqKXAzzYL-23">
          <mxGeometry x="530" width="80" height="53" as="geometry">
            <mxRectangle width="80" height="53" as="alternateBounds" />
          </mxGeometry>
        </mxCell>
        <mxCell id="Opuij0zFXK9TqKXAzzYL-125" value="tut1@fhbb.ch" style="shape=partialRectangle;html=1;whiteSpace=wrap;connectable=0;fillColor=none;top=0;left=0;bottom=0;right=0;overflow=hidden;pointerEvents=1;" vertex="1" parent="Opuij0zFXK9TqKXAzzYL-23">
          <mxGeometry x="610" width="82" height="53" as="geometry">
            <mxRectangle width="82" height="53" as="alternateBounds" />
          </mxGeometry>
        </mxCell>
        <mxCell id="Opuij0zFXK9TqKXAzzYL-29" value="" style="shape=partialRectangle;html=1;whiteSpace=wrap;collapsible=0;dropTarget=0;pointerEvents=0;fillColor=none;top=0;left=0;bottom=0;right=0;points=[[0,0.5],[1,0.5]];portConstraint=eastwest;" vertex="1" parent="Opuij0zFXK9TqKXAzzYL-28">
          <mxGeometry y="213" width="692" height="53" as="geometry" />
        </mxCell>
        <mxCell id="Opuij0zFXK9TqKXAzzYL-110" value="&lt;span style=&quot;color: rgb(0 , 0 , 0) ; font-family: &amp;#34;helvetica&amp;#34; ; font-size: 12px ; font-style: normal ; font-weight: 400 ; letter-spacing: normal ; text-align: center ; text-indent: 0px ; text-transform: none ; word-spacing: 0px ; background-color: rgb(248 , 249 , 250) ; display: inline ; float: none&quot;&gt;U5&lt;/span&gt;" style="shape=partialRectangle;html=1;whiteSpace=wrap;connectable=0;fillColor=none;top=0;left=0;bottom=0;right=0;overflow=hidden;pointerEvents=1;" vertex="1" parent="Opuij0zFXK9TqKXAzzYL-29">
          <mxGeometry width="77" height="53" as="geometry">
            <mxRectangle width="77" height="53" as="alternateBounds" />
          </mxGeometry>
        </mxCell>
        <mxCell id="Opuij0zFXK9TqKXAzzYL-102" value="&lt;span&gt;St2&lt;/span&gt;" style="shape=partialRectangle;html=1;whiteSpace=wrap;connectable=0;fillColor=none;top=0;left=0;bottom=0;right=0;overflow=hidden;pointerEvents=1;" vertex="1" parent="Opuij0zFXK9TqKXAzzYL-29">
          <mxGeometry x="77" width="77" height="53" as="geometry">
            <mxRectangle width="77" height="53" as="alternateBounds" />
          </mxGeometry>
        </mxCell>
        <mxCell id="Opuij0zFXK9TqKXAzzYL-94" value="05.05.03" style="shape=partialRectangle;html=1;whiteSpace=wrap;connectable=0;fillColor=none;top=0;left=0;bottom=0;right=0;overflow=hidden;pointerEvents=1;" vertex="1" parent="Opuij0zFXK9TqKXAzzYL-29">
          <mxGeometry x="154" width="77" height="53" as="geometry">
            <mxRectangle width="77" height="53" as="alternateBounds" />
          </mxGeometry>
        </mxCell>
        <mxCell id="Opuij0zFXK9TqKXAzzYL-86" value="Tut3" style="shape=partialRectangle;html=1;whiteSpace=wrap;connectable=0;fillColor=none;top=0;left=0;bottom=0;right=0;overflow=hidden;pointerEvents=1;" vertex="1" parent="Opuij0zFXK9TqKXAzzYL-29">
          <mxGeometry x="231" width="77" height="53" as="geometry">
            <mxRectangle width="77" height="53" as="alternateBounds" />
          </mxGeometry>
        </mxCell>
        <mxCell id="Opuij0zFXK9TqKXAzzYL-78" value="PhF" style="shape=partialRectangle;html=1;whiteSpace=wrap;connectable=0;fillColor=none;top=0;left=0;bottom=0;right=0;overflow=hidden;pointerEvents=1;" vertex="1" parent="Opuij0zFXK9TqKXAzzYL-29">
          <mxGeometry x="308" width="77" height="53" as="geometry">
            <mxRectangle width="77" height="53" as="alternateBounds" />
          </mxGeometry>
        </mxCell>
        <mxCell id="Opuij0zFXK9TqKXAzzYL-30" value="632" style="shape=partialRectangle;html=1;whiteSpace=wrap;connectable=0;fillColor=none;top=0;left=0;bottom=0;right=0;overflow=hidden;pointerEvents=1;" vertex="1" parent="Opuij0zFXK9TqKXAzzYL-29">
          <mxGeometry x="385" width="75" height="53" as="geometry">
            <mxRectangle width="75" height="53" as="alternateBounds" />
          </mxGeometry>
        </mxCell>
        <mxCell id="Opuij0zFXK9TqKXAzzYL-31" value="4.9" style="shape=partialRectangle;html=1;whiteSpace=wrap;connectable=0;fillColor=none;top=0;left=0;bottom=0;right=0;overflow=hidden;pointerEvents=1;" vertex="1" parent="Opuij0zFXK9TqKXAzzYL-29">
          <mxGeometry x="460" width="70" height="53" as="geometry">
            <mxRectangle width="70" height="53" as="alternateBounds" />
          </mxGeometry>
        </mxCell>
        <mxCell id="Opuij0zFXK9TqKXAzzYL-32" value="Dümmlers&amp;nbsp;" style="shape=partialRectangle;html=1;whiteSpace=wrap;connectable=0;fillColor=none;top=0;left=0;bottom=0;right=0;overflow=hidden;pointerEvents=1;" vertex="1" parent="Opuij0zFXK9TqKXAzzYL-29">
          <mxGeometry x="530" width="80" height="53" as="geometry">
            <mxRectangle width="80" height="53" as="alternateBounds" />
          </mxGeometry>
        </mxCell>
        <mxCell id="Opuij0zFXK9TqKXAzzYL-126" value="tut3@fhbb.ch" style="shape=partialRectangle;html=1;whiteSpace=wrap;connectable=0;fillColor=none;top=0;left=0;bottom=0;right=0;overflow=hidden;pointerEvents=1;" vertex="1" parent="Opuij0zFXK9TqKXAzzYL-29">
          <mxGeometry x="610" width="82" height="53" as="geometry">
            <mxRectangle width="82" height="53" as="alternateBounds" />
          </mxGeometry>
        </mxCell>
        <mxCell id="Opuij0zFXK9TqKXAzzYL-33" value="" style="shape=partialRectangle;html=1;whiteSpace=wrap;collapsible=0;dropTarget=0;pointerEvents=0;fillColor=none;top=0;left=0;bottom=0;right=0;points=[[0,0.5],[1,0.5]];portConstraint=eastwest;" vertex="1" parent="Opuij0zFXK9TqKXAzzYL-28">
          <mxGeometry y="266" width="692" height="54" as="geometry" />
        </mxCell>
        <mxCell id="Opuij0zFXK9TqKXAzzYL-111" value="&lt;span style=&quot;color: rgb(0 , 0 , 0) ; font-family: &amp;#34;helvetica&amp;#34; ; font-size: 12px ; font-style: normal ; font-weight: 400 ; letter-spacing: normal ; text-align: center ; text-indent: 0px ; text-transform: none ; word-spacing: 0px ; background-color: rgb(248 , 249 , 250) ; display: inline ; float: none&quot;&gt;U4&lt;/span&gt;" style="shape=partialRectangle;html=1;whiteSpace=wrap;connectable=0;fillColor=none;top=0;left=0;bottom=0;right=0;overflow=hidden;pointerEvents=1;" vertex="1" parent="Opuij0zFXK9TqKXAzzYL-33">
          <mxGeometry width="77" height="54" as="geometry">
            <mxRectangle width="77" height="54" as="alternateBounds" />
          </mxGeometry>
        </mxCell>
        <mxCell id="Opuij0zFXK9TqKXAzzYL-103" value="&lt;span style=&quot;color: rgb(0 , 0 , 0) ; font-family: &amp;#34;helvetica&amp;#34; ; font-size: 12px ; font-style: normal ; font-weight: 400 ; letter-spacing: normal ; text-align: center ; text-indent: 0px ; text-transform: none ; word-spacing: 0px ; background-color: rgb(248 , 249 , 250) ; display: inline ; float: none&quot;&gt;St2&lt;/span&gt;" style="shape=partialRectangle;html=1;whiteSpace=wrap;connectable=0;fillColor=none;top=0;left=0;bottom=0;right=0;overflow=hidden;pointerEvents=1;" vertex="1" parent="Opuij0zFXK9TqKXAzzYL-33">
          <mxGeometry x="77" width="77" height="54" as="geometry">
            <mxRectangle width="77" height="54" as="alternateBounds" />
          </mxGeometry>
        </mxCell>
        <mxCell id="Opuij0zFXK9TqKXAzzYL-95" value="04.07.03" style="shape=partialRectangle;html=1;whiteSpace=wrap;connectable=0;fillColor=none;top=0;left=0;bottom=0;right=0;overflow=hidden;pointerEvents=1;" vertex="1" parent="Opuij0zFXK9TqKXAzzYL-33">
          <mxGeometry x="154" width="77" height="54" as="geometry">
            <mxRectangle width="77" height="54" as="alternateBounds" />
          </mxGeometry>
        </mxCell>
        <mxCell id="Opuij0zFXK9TqKXAzzYL-87" value="Tut5" style="shape=partialRectangle;html=1;whiteSpace=wrap;connectable=0;fillColor=none;top=0;left=0;bottom=0;right=0;overflow=hidden;pointerEvents=1;" vertex="1" parent="Opuij0zFXK9TqKXAzzYL-33">
          <mxGeometry x="231" width="77" height="54" as="geometry">
            <mxRectangle width="77" height="54" as="alternateBounds" />
          </mxGeometry>
        </mxCell>
        <mxCell id="Opuij0zFXK9TqKXAzzYL-79" value="AVQ" style="shape=partialRectangle;html=1;whiteSpace=wrap;connectable=0;fillColor=none;top=0;left=0;bottom=0;right=0;overflow=hidden;pointerEvents=1;" vertex="1" parent="Opuij0zFXK9TqKXAzzYL-33">
          <mxGeometry x="308" width="77" height="54" as="geometry">
            <mxRectangle width="77" height="54" as="alternateBounds" />
          </mxGeometry>
        </mxCell>
        <mxCell id="Opuij0zFXK9TqKXAzzYL-34" value="621" style="shape=partialRectangle;html=1;whiteSpace=wrap;connectable=0;fillColor=none;top=0;left=0;bottom=0;right=0;overflow=hidden;pointerEvents=1;" vertex="1" parent="Opuij0zFXK9TqKXAzzYL-33">
          <mxGeometry x="385" width="75" height="54" as="geometry">
            <mxRectangle width="75" height="54" as="alternateBounds" />
          </mxGeometry>
        </mxCell>
        <mxCell id="Opuij0zFXK9TqKXAzzYL-35" value="5.0" style="shape=partialRectangle;html=1;whiteSpace=wrap;connectable=0;fillColor=none;top=0;left=0;bottom=0;right=0;overflow=hidden;pointerEvents=1;" vertex="1" parent="Opuij0zFXK9TqKXAzzYL-33">
          <mxGeometry x="460" width="70" height="54" as="geometry">
            <mxRectangle width="70" height="54" as="alternateBounds" />
          </mxGeometry>
        </mxCell>
        <mxCell id="Opuij0zFXK9TqKXAzzYL-36" value="SwissTopo&amp;nbsp;" style="shape=partialRectangle;html=1;whiteSpace=wrap;connectable=0;fillColor=none;top=0;left=0;bottom=0;right=0;overflow=hidden;pointerEvents=1;" vertex="1" parent="Opuij0zFXK9TqKXAzzYL-33">
          <mxGeometry x="530" width="80" height="54" as="geometry">
            <mxRectangle width="80" height="54" as="alternateBounds" />
          </mxGeometry>
        </mxCell>
        <mxCell id="Opuij0zFXK9TqKXAzzYL-127" value="tut5@fhbb.ch" style="shape=partialRectangle;html=1;whiteSpace=wrap;connectable=0;fillColor=none;top=0;left=0;bottom=0;right=0;overflow=hidden;pointerEvents=1;" vertex="1" parent="Opuij0zFXK9TqKXAzzYL-33">
          <mxGeometry x="610" width="82" height="54" as="geometry">
            <mxRectangle width="82" height="54" as="alternateBounds" />
          </mxGeometry>
        </mxCell>
        <mxCell id="Opuij0zFXK9TqKXAzzYL-131" value="" style="shape=table;html=1;whiteSpace=wrap;startSize=0;container=1;collapsible=0;childLayout=tableLayout;align=center;verticalAlign=top;shadow=0;" vertex="1" parent="1">
          <mxGeometry x="-10" y="510" width="159" height="214" as="geometry" />
        </mxCell>
        <mxCell id="Opuij0zFXK9TqKXAzzYL-132" value="" style="shape=partialRectangle;html=1;whiteSpace=wrap;collapsible=0;dropTarget=0;pointerEvents=0;fillColor=none;top=0;left=0;bottom=0;right=0;points=[[0,0.5],[1,0.5]];portConstraint=eastwest;fontStyle=1" vertex="1" parent="Opuij0zFXK9TqKXAzzYL-131">
          <mxGeometry width="159" height="53" as="geometry" />
        </mxCell>
        <mxCell id="Opuij0zFXK9TqKXAzzYL-136" value="&lt;b&gt;Tutor&lt;br&gt;ID&lt;/b&gt;" style="shape=partialRectangle;html=1;whiteSpace=wrap;connectable=0;fillColor=none;top=0;left=0;bottom=0;right=0;overflow=hidden;pointerEvents=1;" vertex="1" parent="Opuij0zFXK9TqKXAzzYL-132">
          <mxGeometry width="77" height="53" as="geometry">
            <mxRectangle width="77" height="53" as="alternateBounds" />
          </mxGeometry>
        </mxCell>
        <mxCell id="Opuij0zFXK9TqKXAzzYL-141" value="&lt;b&gt;TutEmail&lt;/b&gt;" style="shape=partialRectangle;html=1;whiteSpace=wrap;connectable=0;fillColor=none;top=0;left=0;bottom=0;right=0;overflow=hidden;pointerEvents=1;" vertex="1" parent="Opuij0zFXK9TqKXAzzYL-132">
          <mxGeometry x="77" width="82" height="53" as="geometry">
            <mxRectangle width="82" height="53" as="alternateBounds" />
          </mxGeometry>
        </mxCell>
        <mxCell id="Opuij0zFXK9TqKXAzzYL-142" value="" style="shape=partialRectangle;html=1;whiteSpace=wrap;collapsible=0;dropTarget=0;pointerEvents=0;fillColor=none;top=0;left=0;bottom=0;right=0;points=[[0,0.5],[1,0.5]];portConstraint=eastwest;" vertex="1" parent="Opuij0zFXK9TqKXAzzYL-131">
          <mxGeometry y="53" width="159" height="53" as="geometry" />
        </mxCell>
        <mxCell id="Opuij0zFXK9TqKXAzzYL-146" value="Tut1" style="shape=partialRectangle;html=1;whiteSpace=wrap;connectable=0;fillColor=none;top=0;left=0;bottom=0;right=0;overflow=hidden;pointerEvents=1;" vertex="1" parent="Opuij0zFXK9TqKXAzzYL-142">
          <mxGeometry width="77" height="53" as="geometry">
            <mxRectangle width="77" height="53" as="alternateBounds" />
          </mxGeometry>
        </mxCell>
        <mxCell id="Opuij0zFXK9TqKXAzzYL-151" value="tut1@fhbb.ch" style="shape=partialRectangle;html=1;whiteSpace=wrap;connectable=0;fillColor=none;top=0;left=0;bottom=0;right=0;overflow=hidden;pointerEvents=1;" vertex="1" parent="Opuij0zFXK9TqKXAzzYL-142">
          <mxGeometry x="77" width="82" height="53" as="geometry">
            <mxRectangle width="82" height="53" as="alternateBounds" />
          </mxGeometry>
        </mxCell>
        <mxCell id="Opuij0zFXK9TqKXAzzYL-152" value="" style="shape=partialRectangle;html=1;whiteSpace=wrap;collapsible=0;dropTarget=0;pointerEvents=0;fillColor=none;top=0;left=0;bottom=0;right=0;points=[[0,0.5],[1,0.5]];portConstraint=eastwest;" vertex="1" parent="Opuij0zFXK9TqKXAzzYL-131">
          <mxGeometry y="106" width="159" height="54" as="geometry" />
        </mxCell>
        <mxCell id="Opuij0zFXK9TqKXAzzYL-156" value="Tut3" style="shape=partialRectangle;html=1;whiteSpace=wrap;connectable=0;fillColor=none;top=0;left=0;bottom=0;right=0;overflow=hidden;pointerEvents=1;" vertex="1" parent="Opuij0zFXK9TqKXAzzYL-152">
          <mxGeometry width="77" height="54" as="geometry">
            <mxRectangle width="77" height="54" as="alternateBounds" />
          </mxGeometry>
        </mxCell>
        <mxCell id="Opuij0zFXK9TqKXAzzYL-161" value="tut3@fhbb.ch" style="shape=partialRectangle;html=1;whiteSpace=wrap;connectable=0;fillColor=none;top=0;left=0;bottom=0;right=0;overflow=hidden;pointerEvents=1;" vertex="1" parent="Opuij0zFXK9TqKXAzzYL-152">
          <mxGeometry x="77" width="82" height="54" as="geometry">
            <mxRectangle width="82" height="54" as="alternateBounds" />
          </mxGeometry>
        </mxCell>
        <mxCell id="Opuij0zFXK9TqKXAzzYL-182" value="" style="shape=partialRectangle;html=1;whiteSpace=wrap;collapsible=0;dropTarget=0;pointerEvents=0;fillColor=none;top=0;left=0;bottom=0;right=0;points=[[0,0.5],[1,0.5]];portConstraint=eastwest;" vertex="1" parent="Opuij0zFXK9TqKXAzzYL-131">
          <mxGeometry y="160" width="159" height="54" as="geometry" />
        </mxCell>
        <mxCell id="Opuij0zFXK9TqKXAzzYL-186" value="Tut5" style="shape=partialRectangle;html=1;whiteSpace=wrap;connectable=0;fillColor=none;top=0;left=0;bottom=0;right=0;overflow=hidden;pointerEvents=1;" vertex="1" parent="Opuij0zFXK9TqKXAzzYL-182">
          <mxGeometry width="77" height="54" as="geometry">
            <mxRectangle width="77" height="54" as="alternateBounds" />
          </mxGeometry>
        </mxCell>
        <mxCell id="Opuij0zFXK9TqKXAzzYL-191" value="tut5@fhbb.ch" style="shape=partialRectangle;html=1;whiteSpace=wrap;connectable=0;fillColor=none;top=0;left=0;bottom=0;right=0;overflow=hidden;pointerEvents=1;" vertex="1" parent="Opuij0zFXK9TqKXAzzYL-182">
          <mxGeometry x="77" width="82" height="54" as="geometry">
            <mxRectangle width="82" height="54" as="alternateBounds" />
          </mxGeometry>
        </mxCell>
        <mxCell id="Opuij0zFXK9TqKXAzzYL-192" value="" style="shape=table;html=1;whiteSpace=wrap;startSize=0;container=1;collapsible=0;childLayout=tableLayout;align=center;verticalAlign=top;shadow=0;" vertex="1" parent="1">
          <mxGeometry x="190" y="510" width="301" height="320" as="geometry" />
        </mxCell>
        <mxCell id="Opuij0zFXK9TqKXAzzYL-193" value="" style="shape=partialRectangle;html=1;whiteSpace=wrap;collapsible=0;dropTarget=0;pointerEvents=0;fillColor=none;top=0;left=0;bottom=0;right=0;points=[[0,0.5],[1,0.5]];portConstraint=eastwest;fontStyle=1" vertex="1" parent="Opuij0zFXK9TqKXAzzYL-192">
          <mxGeometry width="301" height="53" as="geometry" />
        </mxCell>
        <mxCell id="Opuij0zFXK9TqKXAzzYL-194" value="&lt;b&gt;UnitID&lt;/b&gt;" style="shape=partialRectangle;html=1;whiteSpace=wrap;connectable=0;fillColor=none;top=0;left=0;bottom=0;right=0;overflow=hidden;pointerEvents=1;" vertex="1" parent="Opuij0zFXK9TqKXAzzYL-193">
          <mxGeometry width="77" height="53" as="geometry">
            <mxRectangle width="77" height="53" as="alternateBounds" />
          </mxGeometry>
        </mxCell>
        <mxCell id="Opuij0zFXK9TqKXAzzYL-195" value="&lt;b&gt;StudentID&lt;/b&gt;" style="shape=partialRectangle;html=1;whiteSpace=wrap;connectable=0;fillColor=none;top=0;left=0;bottom=0;right=0;overflow=hidden;pointerEvents=1;" vertex="1" parent="Opuij0zFXK9TqKXAzzYL-193">
          <mxGeometry x="77" width="77" height="53" as="geometry">
            <mxRectangle width="77" height="53" as="alternateBounds" />
          </mxGeometry>
        </mxCell>
        <mxCell id="Opuij0zFXK9TqKXAzzYL-197" value="&lt;b&gt;Tutor&lt;br&gt;ID&lt;/b&gt;" style="shape=partialRectangle;html=1;whiteSpace=wrap;connectable=0;fillColor=none;top=0;left=0;bottom=0;right=0;overflow=hidden;pointerEvents=1;" vertex="1" parent="Opuij0zFXK9TqKXAzzYL-193">
          <mxGeometry x="154" width="77" height="53" as="geometry">
            <mxRectangle width="77" height="53" as="alternateBounds" />
          </mxGeometry>
        </mxCell>
        <mxCell id="Opuij0zFXK9TqKXAzzYL-200" value="&lt;b&gt;Grade&lt;/b&gt;" style="shape=partialRectangle;html=1;whiteSpace=wrap;connectable=0;fillColor=none;top=0;left=0;bottom=0;right=0;overflow=hidden;pointerEvents=1;" vertex="1" parent="Opuij0zFXK9TqKXAzzYL-193">
          <mxGeometry x="231" width="70" height="53" as="geometry">
            <mxRectangle width="70" height="53" as="alternateBounds" />
          </mxGeometry>
        </mxCell>
        <mxCell id="Opuij0zFXK9TqKXAzzYL-203" value="" style="shape=partialRectangle;html=1;whiteSpace=wrap;collapsible=0;dropTarget=0;pointerEvents=0;fillColor=none;top=0;left=0;bottom=0;right=0;points=[[0,0.5],[1,0.5]];portConstraint=eastwest;" vertex="1" parent="Opuij0zFXK9TqKXAzzYL-192">
          <mxGeometry y="53" width="301" height="53" as="geometry" />
        </mxCell>
        <mxCell id="Opuij0zFXK9TqKXAzzYL-204" value="U1" style="shape=partialRectangle;html=1;whiteSpace=wrap;connectable=0;fillColor=none;top=0;left=0;bottom=0;right=0;overflow=hidden;pointerEvents=1;" vertex="1" parent="Opuij0zFXK9TqKXAzzYL-203">
          <mxGeometry width="77" height="53" as="geometry">
            <mxRectangle width="77" height="53" as="alternateBounds" />
          </mxGeometry>
        </mxCell>
        <mxCell id="Opuij0zFXK9TqKXAzzYL-205" value="&lt;span&gt;St1&lt;/span&gt;" style="shape=partialRectangle;html=1;whiteSpace=wrap;connectable=0;fillColor=none;top=0;left=0;bottom=0;right=0;overflow=hidden;pointerEvents=1;" vertex="1" parent="Opuij0zFXK9TqKXAzzYL-203">
          <mxGeometry x="77" width="77" height="53" as="geometry">
            <mxRectangle width="77" height="53" as="alternateBounds" />
          </mxGeometry>
        </mxCell>
        <mxCell id="Opuij0zFXK9TqKXAzzYL-207" value="Tut1" style="shape=partialRectangle;html=1;whiteSpace=wrap;connectable=0;fillColor=none;top=0;left=0;bottom=0;right=0;overflow=hidden;pointerEvents=1;" vertex="1" parent="Opuij0zFXK9TqKXAzzYL-203">
          <mxGeometry x="154" width="77" height="53" as="geometry">
            <mxRectangle width="77" height="53" as="alternateBounds" />
          </mxGeometry>
        </mxCell>
        <mxCell id="Opuij0zFXK9TqKXAzzYL-210" value="4.7" style="shape=partialRectangle;html=1;whiteSpace=wrap;connectable=0;fillColor=none;top=0;left=0;bottom=0;right=0;overflow=hidden;pointerEvents=1;" vertex="1" parent="Opuij0zFXK9TqKXAzzYL-203">
          <mxGeometry x="231" width="70" height="53" as="geometry">
            <mxRectangle width="70" height="53" as="alternateBounds" />
          </mxGeometry>
        </mxCell>
        <mxCell id="Opuij0zFXK9TqKXAzzYL-213" value="" style="shape=partialRectangle;html=1;whiteSpace=wrap;collapsible=0;dropTarget=0;pointerEvents=0;fillColor=none;top=0;left=0;bottom=0;right=0;points=[[0,0.5],[1,0.5]];portConstraint=eastwest;" vertex="1" parent="Opuij0zFXK9TqKXAzzYL-192">
          <mxGeometry y="106" width="301" height="54" as="geometry" />
        </mxCell>
        <mxCell id="Opuij0zFXK9TqKXAzzYL-214" value="&lt;p style=&quot;line-height: 1.4&quot;&gt;&lt;/p&gt;&lt;div&gt;&lt;span style=&quot;font-family: &amp;#34;helvetica&amp;#34;&quot;&gt;U2&lt;/span&gt;&lt;br&gt;&lt;/div&gt;&lt;p&gt;&lt;/p&gt;" style="shape=partialRectangle;html=1;whiteSpace=wrap;connectable=0;fillColor=none;top=0;left=0;bottom=0;right=0;overflow=hidden;pointerEvents=1;verticalAlign=middle;align=center;" vertex="1" parent="Opuij0zFXK9TqKXAzzYL-213">
          <mxGeometry width="77" height="54" as="geometry">
            <mxRectangle width="77" height="54" as="alternateBounds" />
          </mxGeometry>
        </mxCell>
        <mxCell id="Opuij0zFXK9TqKXAzzYL-215" value="&lt;span style=&quot;color: rgb(0 , 0 , 0) ; font-family: &amp;#34;helvetica&amp;#34; ; font-size: 12px ; font-style: normal ; font-weight: 400 ; letter-spacing: normal ; text-align: center ; text-indent: 0px ; text-transform: none ; word-spacing: 0px ; background-color: rgb(248 , 249 , 250) ; display: inline ; float: none&quot;&gt;St1&lt;/span&gt;" style="shape=partialRectangle;html=1;whiteSpace=wrap;connectable=0;fillColor=none;top=0;left=0;bottom=0;right=0;overflow=hidden;pointerEvents=1;" vertex="1" parent="Opuij0zFXK9TqKXAzzYL-213">
          <mxGeometry x="77" width="77" height="54" as="geometry">
            <mxRectangle width="77" height="54" as="alternateBounds" />
          </mxGeometry>
        </mxCell>
        <mxCell id="Opuij0zFXK9TqKXAzzYL-217" value="Tut3" style="shape=partialRectangle;html=1;whiteSpace=wrap;connectable=0;fillColor=none;top=0;left=0;bottom=0;right=0;overflow=hidden;pointerEvents=1;" vertex="1" parent="Opuij0zFXK9TqKXAzzYL-213">
          <mxGeometry x="154" width="77" height="54" as="geometry">
            <mxRectangle width="77" height="54" as="alternateBounds" />
          </mxGeometry>
        </mxCell>
        <mxCell id="Opuij0zFXK9TqKXAzzYL-220" value="5.1" style="shape=partialRectangle;html=1;whiteSpace=wrap;connectable=0;fillColor=none;top=0;left=0;bottom=0;right=0;overflow=hidden;pointerEvents=1;" vertex="1" parent="Opuij0zFXK9TqKXAzzYL-213">
          <mxGeometry x="231" width="70" height="54" as="geometry">
            <mxRectangle width="70" height="54" as="alternateBounds" />
          </mxGeometry>
        </mxCell>
        <mxCell id="Opuij0zFXK9TqKXAzzYL-223" value="" style="shape=partialRectangle;html=1;whiteSpace=wrap;collapsible=0;dropTarget=0;pointerEvents=0;fillColor=none;top=0;left=0;bottom=0;right=0;points=[[0,0.5],[1,0.5]];portConstraint=eastwest;" vertex="1" parent="Opuij0zFXK9TqKXAzzYL-192">
          <mxGeometry y="160" width="301" height="53" as="geometry" />
        </mxCell>
        <mxCell id="Opuij0zFXK9TqKXAzzYL-224" value="&lt;span style=&quot;color: rgb(0 , 0 , 0) ; font-family: &amp;#34;helvetica&amp;#34; ; font-size: 12px ; font-style: normal ; font-weight: 400 ; letter-spacing: normal ; text-align: center ; text-indent: 0px ; text-transform: none ; word-spacing: 0px ; background-color: rgb(248 , 249 , 250) ; display: inline ; float: none&quot;&gt;U1&lt;/span&gt;" style="shape=partialRectangle;html=1;whiteSpace=wrap;connectable=0;fillColor=none;top=0;left=0;bottom=0;right=0;overflow=hidden;pointerEvents=1;" vertex="1" parent="Opuij0zFXK9TqKXAzzYL-223">
          <mxGeometry width="77" height="53" as="geometry">
            <mxRectangle width="77" height="53" as="alternateBounds" />
          </mxGeometry>
        </mxCell>
        <mxCell id="Opuij0zFXK9TqKXAzzYL-225" value="&lt;span&gt;St4&lt;/span&gt;" style="shape=partialRectangle;html=1;whiteSpace=wrap;connectable=0;fillColor=none;top=0;left=0;bottom=0;right=0;overflow=hidden;pointerEvents=1;" vertex="1" parent="Opuij0zFXK9TqKXAzzYL-223">
          <mxGeometry x="77" width="77" height="53" as="geometry">
            <mxRectangle width="77" height="53" as="alternateBounds" />
          </mxGeometry>
        </mxCell>
        <mxCell id="Opuij0zFXK9TqKXAzzYL-227" value="Tut1" style="shape=partialRectangle;html=1;whiteSpace=wrap;connectable=0;fillColor=none;top=0;left=0;bottom=0;right=0;overflow=hidden;pointerEvents=1;" vertex="1" parent="Opuij0zFXK9TqKXAzzYL-223">
          <mxGeometry x="154" width="77" height="53" as="geometry">
            <mxRectangle width="77" height="53" as="alternateBounds" />
          </mxGeometry>
        </mxCell>
        <mxCell id="Opuij0zFXK9TqKXAzzYL-230" value="4.3" style="shape=partialRectangle;html=1;whiteSpace=wrap;connectable=0;fillColor=none;top=0;left=0;bottom=0;right=0;overflow=hidden;pointerEvents=1;" vertex="1" parent="Opuij0zFXK9TqKXAzzYL-223">
          <mxGeometry x="231" width="70" height="53" as="geometry">
            <mxRectangle width="70" height="53" as="alternateBounds" />
          </mxGeometry>
        </mxCell>
        <mxCell id="Opuij0zFXK9TqKXAzzYL-233" value="" style="shape=partialRectangle;html=1;whiteSpace=wrap;collapsible=0;dropTarget=0;pointerEvents=0;fillColor=none;top=0;left=0;bottom=0;right=0;points=[[0,0.5],[1,0.5]];portConstraint=eastwest;" vertex="1" parent="Opuij0zFXK9TqKXAzzYL-192">
          <mxGeometry y="213" width="301" height="53" as="geometry" />
        </mxCell>
        <mxCell id="Opuij0zFXK9TqKXAzzYL-234" value="&lt;span style=&quot;color: rgb(0 , 0 , 0) ; font-family: &amp;#34;helvetica&amp;#34; ; font-size: 12px ; font-style: normal ; font-weight: 400 ; letter-spacing: normal ; text-align: center ; text-indent: 0px ; text-transform: none ; word-spacing: 0px ; background-color: rgb(248 , 249 , 250) ; display: inline ; float: none&quot;&gt;U5&lt;/span&gt;" style="shape=partialRectangle;html=1;whiteSpace=wrap;connectable=0;fillColor=none;top=0;left=0;bottom=0;right=0;overflow=hidden;pointerEvents=1;" vertex="1" parent="Opuij0zFXK9TqKXAzzYL-233">
          <mxGeometry width="77" height="53" as="geometry">
            <mxRectangle width="77" height="53" as="alternateBounds" />
          </mxGeometry>
        </mxCell>
        <mxCell id="Opuij0zFXK9TqKXAzzYL-235" value="&lt;span&gt;St2&lt;/span&gt;" style="shape=partialRectangle;html=1;whiteSpace=wrap;connectable=0;fillColor=none;top=0;left=0;bottom=0;right=0;overflow=hidden;pointerEvents=1;" vertex="1" parent="Opuij0zFXK9TqKXAzzYL-233">
          <mxGeometry x="77" width="77" height="53" as="geometry">
            <mxRectangle width="77" height="53" as="alternateBounds" />
          </mxGeometry>
        </mxCell>
        <mxCell id="Opuij0zFXK9TqKXAzzYL-237" value="Tut3" style="shape=partialRectangle;html=1;whiteSpace=wrap;connectable=0;fillColor=none;top=0;left=0;bottom=0;right=0;overflow=hidden;pointerEvents=1;" vertex="1" parent="Opuij0zFXK9TqKXAzzYL-233">
          <mxGeometry x="154" width="77" height="53" as="geometry">
            <mxRectangle width="77" height="53" as="alternateBounds" />
          </mxGeometry>
        </mxCell>
        <mxCell id="Opuij0zFXK9TqKXAzzYL-240" value="4.9" style="shape=partialRectangle;html=1;whiteSpace=wrap;connectable=0;fillColor=none;top=0;left=0;bottom=0;right=0;overflow=hidden;pointerEvents=1;" vertex="1" parent="Opuij0zFXK9TqKXAzzYL-233">
          <mxGeometry x="231" width="70" height="53" as="geometry">
            <mxRectangle width="70" height="53" as="alternateBounds" />
          </mxGeometry>
        </mxCell>
        <mxCell id="Opuij0zFXK9TqKXAzzYL-243" value="" style="shape=partialRectangle;html=1;whiteSpace=wrap;collapsible=0;dropTarget=0;pointerEvents=0;fillColor=none;top=0;left=0;bottom=0;right=0;points=[[0,0.5],[1,0.5]];portConstraint=eastwest;" vertex="1" parent="Opuij0zFXK9TqKXAzzYL-192">
          <mxGeometry y="266" width="301" height="54" as="geometry" />
        </mxCell>
        <mxCell id="Opuij0zFXK9TqKXAzzYL-244" value="&lt;span style=&quot;color: rgb(0 , 0 , 0) ; font-family: &amp;#34;helvetica&amp;#34; ; font-size: 12px ; font-style: normal ; font-weight: 400 ; letter-spacing: normal ; text-align: center ; text-indent: 0px ; text-transform: none ; word-spacing: 0px ; background-color: rgb(248 , 249 , 250) ; display: inline ; float: none&quot;&gt;U4&lt;/span&gt;" style="shape=partialRectangle;html=1;whiteSpace=wrap;connectable=0;fillColor=none;top=0;left=0;bottom=0;right=0;overflow=hidden;pointerEvents=1;" vertex="1" parent="Opuij0zFXK9TqKXAzzYL-243">
          <mxGeometry width="77" height="54" as="geometry">
            <mxRectangle width="77" height="54" as="alternateBounds" />
          </mxGeometry>
        </mxCell>
        <mxCell id="Opuij0zFXK9TqKXAzzYL-245" value="&lt;span style=&quot;color: rgb(0 , 0 , 0) ; font-family: &amp;#34;helvetica&amp;#34; ; font-size: 12px ; font-style: normal ; font-weight: 400 ; letter-spacing: normal ; text-align: center ; text-indent: 0px ; text-transform: none ; word-spacing: 0px ; background-color: rgb(248 , 249 , 250) ; display: inline ; float: none&quot;&gt;St2&lt;/span&gt;" style="shape=partialRectangle;html=1;whiteSpace=wrap;connectable=0;fillColor=none;top=0;left=0;bottom=0;right=0;overflow=hidden;pointerEvents=1;" vertex="1" parent="Opuij0zFXK9TqKXAzzYL-243">
          <mxGeometry x="77" width="77" height="54" as="geometry">
            <mxRectangle width="77" height="54" as="alternateBounds" />
          </mxGeometry>
        </mxCell>
        <mxCell id="Opuij0zFXK9TqKXAzzYL-247" value="Tut5" style="shape=partialRectangle;html=1;whiteSpace=wrap;connectable=0;fillColor=none;top=0;left=0;bottom=0;right=0;overflow=hidden;pointerEvents=1;" vertex="1" parent="Opuij0zFXK9TqKXAzzYL-243">
          <mxGeometry x="154" width="77" height="54" as="geometry">
            <mxRectangle width="77" height="54" as="alternateBounds" />
          </mxGeometry>
        </mxCell>
        <mxCell id="Opuij0zFXK9TqKXAzzYL-250" value="5.0" style="shape=partialRectangle;html=1;whiteSpace=wrap;connectable=0;fillColor=none;top=0;left=0;bottom=0;right=0;overflow=hidden;pointerEvents=1;" vertex="1" parent="Opuij0zFXK9TqKXAzzYL-243">
          <mxGeometry x="231" width="70" height="54" as="geometry">
            <mxRectangle width="70" height="54" as="alternateBounds" />
          </mxGeometry>
        </mxCell>
        <mxCell id="Opuij0zFXK9TqKXAzzYL-253" value="" style="shape=table;html=1;whiteSpace=wrap;startSize=0;container=1;collapsible=0;childLayout=tableLayout;align=center;verticalAlign=top;shadow=0;" vertex="1" parent="1">
          <mxGeometry x="-425" y="510" width="386" height="267" as="geometry" />
        </mxCell>
        <mxCell id="Opuij0zFXK9TqKXAzzYL-254" value="" style="shape=partialRectangle;html=1;whiteSpace=wrap;collapsible=0;dropTarget=0;pointerEvents=0;fillColor=none;top=0;left=0;bottom=0;right=0;points=[[0,0.5],[1,0.5]];portConstraint=eastwest;fontStyle=1" vertex="1" parent="Opuij0zFXK9TqKXAzzYL-253">
          <mxGeometry width="386" height="53" as="geometry" />
        </mxCell>
        <mxCell id="Opuij0zFXK9TqKXAzzYL-255" value="&lt;b&gt;UnitID&lt;/b&gt;" style="shape=partialRectangle;html=1;whiteSpace=wrap;connectable=0;fillColor=none;top=0;left=0;bottom=0;right=0;overflow=hidden;pointerEvents=1;" vertex="1" parent="Opuij0zFXK9TqKXAzzYL-254">
          <mxGeometry width="77" height="53" as="geometry">
            <mxRectangle width="77" height="53" as="alternateBounds" />
          </mxGeometry>
        </mxCell>
        <mxCell id="Opuij0zFXK9TqKXAzzYL-257" value="&lt;b&gt;Date&lt;/b&gt;" style="shape=partialRectangle;html=1;whiteSpace=wrap;connectable=0;fillColor=none;top=0;left=0;bottom=0;right=0;overflow=hidden;pointerEvents=1;" vertex="1" parent="Opuij0zFXK9TqKXAzzYL-254">
          <mxGeometry x="77" width="77" height="53" as="geometry">
            <mxRectangle width="77" height="53" as="alternateBounds" />
          </mxGeometry>
        </mxCell>
        <mxCell id="Opuij0zFXK9TqKXAzzYL-259" value="&lt;b&gt;Topic&amp;nbsp;&lt;/b&gt;" style="shape=partialRectangle;html=1;whiteSpace=wrap;connectable=0;fillColor=none;top=0;left=0;bottom=0;right=0;overflow=hidden;pointerEvents=1;" vertex="1" parent="Opuij0zFXK9TqKXAzzYL-254">
          <mxGeometry x="154" width="77" height="53" as="geometry">
            <mxRectangle width="77" height="53" as="alternateBounds" />
          </mxGeometry>
        </mxCell>
        <mxCell id="Opuij0zFXK9TqKXAzzYL-260" value="&lt;b&gt;Room&lt;/b&gt;" style="shape=partialRectangle;html=1;whiteSpace=wrap;connectable=0;fillColor=none;top=0;left=0;bottom=0;right=0;overflow=hidden;pointerEvents=1;" vertex="1" parent="Opuij0zFXK9TqKXAzzYL-254">
          <mxGeometry x="231" width="75" height="53" as="geometry">
            <mxRectangle width="75" height="53" as="alternateBounds" />
          </mxGeometry>
        </mxCell>
        <mxCell id="Opuij0zFXK9TqKXAzzYL-262" value="&lt;b&gt;Book&lt;/b&gt;" style="shape=partialRectangle;html=1;whiteSpace=wrap;connectable=0;fillColor=none;top=0;left=0;bottom=0;right=0;overflow=hidden;pointerEvents=1;" vertex="1" parent="Opuij0zFXK9TqKXAzzYL-254">
          <mxGeometry x="306" width="80" height="53" as="geometry">
            <mxRectangle width="80" height="53" as="alternateBounds" />
          </mxGeometry>
        </mxCell>
        <mxCell id="Opuij0zFXK9TqKXAzzYL-263" value="" style="shape=partialRectangle;html=1;whiteSpace=wrap;collapsible=0;dropTarget=0;pointerEvents=0;fillColor=none;top=0;left=0;bottom=0;right=0;points=[[0,0.5],[1,0.5]];portConstraint=eastwest;" vertex="1" parent="Opuij0zFXK9TqKXAzzYL-253">
          <mxGeometry y="53" width="386" height="53" as="geometry" />
        </mxCell>
        <mxCell id="Opuij0zFXK9TqKXAzzYL-264" value="U1" style="shape=partialRectangle;html=1;whiteSpace=wrap;connectable=0;fillColor=none;top=0;left=0;bottom=0;right=0;overflow=hidden;pointerEvents=1;" vertex="1" parent="Opuij0zFXK9TqKXAzzYL-263">
          <mxGeometry width="77" height="53" as="geometry">
            <mxRectangle width="77" height="53" as="alternateBounds" />
          </mxGeometry>
        </mxCell>
        <mxCell id="Opuij0zFXK9TqKXAzzYL-266" value="23.02.03" style="shape=partialRectangle;html=1;whiteSpace=wrap;connectable=0;fillColor=none;top=0;left=0;bottom=0;right=0;overflow=hidden;pointerEvents=1;" vertex="1" parent="Opuij0zFXK9TqKXAzzYL-263">
          <mxGeometry x="77" width="77" height="53" as="geometry">
            <mxRectangle width="77" height="53" as="alternateBounds" />
          </mxGeometry>
        </mxCell>
        <mxCell id="Opuij0zFXK9TqKXAzzYL-268" value="GMT" style="shape=partialRectangle;html=1;whiteSpace=wrap;connectable=0;fillColor=none;top=0;left=0;bottom=0;right=0;overflow=hidden;pointerEvents=1;" vertex="1" parent="Opuij0zFXK9TqKXAzzYL-263">
          <mxGeometry x="154" width="77" height="53" as="geometry">
            <mxRectangle width="77" height="53" as="alternateBounds" />
          </mxGeometry>
        </mxCell>
        <mxCell id="Opuij0zFXK9TqKXAzzYL-269" value="629" style="shape=partialRectangle;html=1;whiteSpace=wrap;connectable=0;fillColor=none;top=0;left=0;bottom=0;right=0;overflow=hidden;pointerEvents=1;" vertex="1" parent="Opuij0zFXK9TqKXAzzYL-263">
          <mxGeometry x="231" width="75" height="53" as="geometry">
            <mxRectangle width="75" height="53" as="alternateBounds" />
          </mxGeometry>
        </mxCell>
        <mxCell id="Opuij0zFXK9TqKXAzzYL-271" value="Deumlich&lt;br&gt;" style="shape=partialRectangle;html=1;whiteSpace=wrap;connectable=0;fillColor=none;top=0;left=0;bottom=0;right=0;overflow=hidden;pointerEvents=1;" vertex="1" parent="Opuij0zFXK9TqKXAzzYL-263">
          <mxGeometry x="306" width="80" height="53" as="geometry">
            <mxRectangle width="80" height="53" as="alternateBounds" />
          </mxGeometry>
        </mxCell>
        <mxCell id="Opuij0zFXK9TqKXAzzYL-272" value="" style="shape=partialRectangle;html=1;whiteSpace=wrap;collapsible=0;dropTarget=0;pointerEvents=0;fillColor=none;top=0;left=0;bottom=0;right=0;points=[[0,0.5],[1,0.5]];portConstraint=eastwest;" vertex="1" parent="Opuij0zFXK9TqKXAzzYL-253">
          <mxGeometry y="106" width="386" height="54" as="geometry" />
        </mxCell>
        <mxCell id="Opuij0zFXK9TqKXAzzYL-273" value="&lt;p style=&quot;line-height: 1.4&quot;&gt;&lt;/p&gt;&lt;div&gt;&lt;span style=&quot;font-family: &amp;#34;helvetica&amp;#34;&quot;&gt;U2&lt;/span&gt;&lt;br&gt;&lt;/div&gt;&lt;p&gt;&lt;/p&gt;" style="shape=partialRectangle;html=1;whiteSpace=wrap;connectable=0;fillColor=none;top=0;left=0;bottom=0;right=0;overflow=hidden;pointerEvents=1;verticalAlign=middle;align=center;" vertex="1" parent="Opuij0zFXK9TqKXAzzYL-272">
          <mxGeometry width="77" height="54" as="geometry">
            <mxRectangle width="77" height="54" as="alternateBounds" />
          </mxGeometry>
        </mxCell>
        <mxCell id="Opuij0zFXK9TqKXAzzYL-275" value="18.11.02" style="shape=partialRectangle;html=1;whiteSpace=wrap;connectable=0;fillColor=none;top=0;left=0;bottom=0;right=0;overflow=hidden;pointerEvents=1;" vertex="1" parent="Opuij0zFXK9TqKXAzzYL-272">
          <mxGeometry x="77" width="77" height="54" as="geometry">
            <mxRectangle width="77" height="54" as="alternateBounds" />
          </mxGeometry>
        </mxCell>
        <mxCell id="Opuij0zFXK9TqKXAzzYL-277" value="Gln" style="shape=partialRectangle;html=1;whiteSpace=wrap;connectable=0;fillColor=none;top=0;left=0;bottom=0;right=0;overflow=hidden;pointerEvents=1;" vertex="1" parent="Opuij0zFXK9TqKXAzzYL-272">
          <mxGeometry x="154" width="77" height="54" as="geometry">
            <mxRectangle width="77" height="54" as="alternateBounds" />
          </mxGeometry>
        </mxCell>
        <mxCell id="Opuij0zFXK9TqKXAzzYL-278" value="631" style="shape=partialRectangle;html=1;whiteSpace=wrap;connectable=0;fillColor=none;top=0;left=0;bottom=0;right=0;overflow=hidden;pointerEvents=1;" vertex="1" parent="Opuij0zFXK9TqKXAzzYL-272">
          <mxGeometry x="231" width="75" height="54" as="geometry">
            <mxRectangle width="75" height="54" as="alternateBounds" />
          </mxGeometry>
        </mxCell>
        <mxCell id="Opuij0zFXK9TqKXAzzYL-280" value="Zehnder" style="shape=partialRectangle;html=1;whiteSpace=wrap;connectable=0;fillColor=none;top=0;left=0;bottom=0;right=0;overflow=hidden;pointerEvents=1;" vertex="1" parent="Opuij0zFXK9TqKXAzzYL-272">
          <mxGeometry x="306" width="80" height="54" as="geometry">
            <mxRectangle width="80" height="54" as="alternateBounds" />
          </mxGeometry>
        </mxCell>
        <mxCell id="Opuij0zFXK9TqKXAzzYL-290" value="" style="shape=partialRectangle;html=1;whiteSpace=wrap;collapsible=0;dropTarget=0;pointerEvents=0;fillColor=none;top=0;left=0;bottom=0;right=0;points=[[0,0.5],[1,0.5]];portConstraint=eastwest;" vertex="1" parent="Opuij0zFXK9TqKXAzzYL-253">
          <mxGeometry y="160" width="386" height="53" as="geometry" />
        </mxCell>
        <mxCell id="Opuij0zFXK9TqKXAzzYL-291" value="&lt;span style=&quot;color: rgb(0 , 0 , 0) ; font-family: &amp;#34;helvetica&amp;#34; ; font-size: 12px ; font-style: normal ; font-weight: 400 ; letter-spacing: normal ; text-align: center ; text-indent: 0px ; text-transform: none ; word-spacing: 0px ; background-color: rgb(248 , 249 , 250) ; display: inline ; float: none&quot;&gt;U5&lt;/span&gt;" style="shape=partialRectangle;html=1;whiteSpace=wrap;connectable=0;fillColor=none;top=0;left=0;bottom=0;right=0;overflow=hidden;pointerEvents=1;" vertex="1" parent="Opuij0zFXK9TqKXAzzYL-290">
          <mxGeometry width="77" height="53" as="geometry">
            <mxRectangle width="77" height="53" as="alternateBounds" />
          </mxGeometry>
        </mxCell>
        <mxCell id="Opuij0zFXK9TqKXAzzYL-293" value="05.05.03" style="shape=partialRectangle;html=1;whiteSpace=wrap;connectable=0;fillColor=none;top=0;left=0;bottom=0;right=0;overflow=hidden;pointerEvents=1;" vertex="1" parent="Opuij0zFXK9TqKXAzzYL-290">
          <mxGeometry x="77" width="77" height="53" as="geometry">
            <mxRectangle width="77" height="53" as="alternateBounds" />
          </mxGeometry>
        </mxCell>
        <mxCell id="Opuij0zFXK9TqKXAzzYL-295" value="PhF" style="shape=partialRectangle;html=1;whiteSpace=wrap;connectable=0;fillColor=none;top=0;left=0;bottom=0;right=0;overflow=hidden;pointerEvents=1;" vertex="1" parent="Opuij0zFXK9TqKXAzzYL-290">
          <mxGeometry x="154" width="77" height="53" as="geometry">
            <mxRectangle width="77" height="53" as="alternateBounds" />
          </mxGeometry>
        </mxCell>
        <mxCell id="Opuij0zFXK9TqKXAzzYL-296" value="632" style="shape=partialRectangle;html=1;whiteSpace=wrap;connectable=0;fillColor=none;top=0;left=0;bottom=0;right=0;overflow=hidden;pointerEvents=1;" vertex="1" parent="Opuij0zFXK9TqKXAzzYL-290">
          <mxGeometry x="231" width="75" height="53" as="geometry">
            <mxRectangle width="75" height="53" as="alternateBounds" />
          </mxGeometry>
        </mxCell>
        <mxCell id="Opuij0zFXK9TqKXAzzYL-298" value="Dümmlers&amp;nbsp;" style="shape=partialRectangle;html=1;whiteSpace=wrap;connectable=0;fillColor=none;top=0;left=0;bottom=0;right=0;overflow=hidden;pointerEvents=1;" vertex="1" parent="Opuij0zFXK9TqKXAzzYL-290">
          <mxGeometry x="306" width="80" height="53" as="geometry">
            <mxRectangle width="80" height="53" as="alternateBounds" />
          </mxGeometry>
        </mxCell>
        <mxCell id="Opuij0zFXK9TqKXAzzYL-299" value="" style="shape=partialRectangle;html=1;whiteSpace=wrap;collapsible=0;dropTarget=0;pointerEvents=0;fillColor=none;top=0;left=0;bottom=0;right=0;points=[[0,0.5],[1,0.5]];portConstraint=eastwest;" vertex="1" parent="Opuij0zFXK9TqKXAzzYL-253">
          <mxGeometry y="213" width="386" height="54" as="geometry" />
        </mxCell>
        <mxCell id="Opuij0zFXK9TqKXAzzYL-300" value="&lt;span style=&quot;color: rgb(0 , 0 , 0) ; font-family: &amp;#34;helvetica&amp;#34; ; font-size: 12px ; font-style: normal ; font-weight: 400 ; letter-spacing: normal ; text-align: center ; text-indent: 0px ; text-transform: none ; word-spacing: 0px ; background-color: rgb(248 , 249 , 250) ; display: inline ; float: none&quot;&gt;U4&lt;/span&gt;" style="shape=partialRectangle;html=1;whiteSpace=wrap;connectable=0;fillColor=none;top=0;left=0;bottom=0;right=0;overflow=hidden;pointerEvents=1;" vertex="1" parent="Opuij0zFXK9TqKXAzzYL-299">
          <mxGeometry width="77" height="54" as="geometry">
            <mxRectangle width="77" height="54" as="alternateBounds" />
          </mxGeometry>
        </mxCell>
        <mxCell id="Opuij0zFXK9TqKXAzzYL-302" value="04.07.03" style="shape=partialRectangle;html=1;whiteSpace=wrap;connectable=0;fillColor=none;top=0;left=0;bottom=0;right=0;overflow=hidden;pointerEvents=1;" vertex="1" parent="Opuij0zFXK9TqKXAzzYL-299">
          <mxGeometry x="77" width="77" height="54" as="geometry">
            <mxRectangle width="77" height="54" as="alternateBounds" />
          </mxGeometry>
        </mxCell>
        <mxCell id="Opuij0zFXK9TqKXAzzYL-304" value="AVQ" style="shape=partialRectangle;html=1;whiteSpace=wrap;connectable=0;fillColor=none;top=0;left=0;bottom=0;right=0;overflow=hidden;pointerEvents=1;" vertex="1" parent="Opuij0zFXK9TqKXAzzYL-299">
          <mxGeometry x="154" width="77" height="54" as="geometry">
            <mxRectangle width="77" height="54" as="alternateBounds" />
          </mxGeometry>
        </mxCell>
        <mxCell id="Opuij0zFXK9TqKXAzzYL-305" value="621" style="shape=partialRectangle;html=1;whiteSpace=wrap;connectable=0;fillColor=none;top=0;left=0;bottom=0;right=0;overflow=hidden;pointerEvents=1;" vertex="1" parent="Opuij0zFXK9TqKXAzzYL-299">
          <mxGeometry x="231" width="75" height="54" as="geometry">
            <mxRectangle width="75" height="54" as="alternateBounds" />
          </mxGeometry>
        </mxCell>
        <mxCell id="Opuij0zFXK9TqKXAzzYL-307" value="SwissTopo&amp;nbsp;" style="shape=partialRectangle;html=1;whiteSpace=wrap;connectable=0;fillColor=none;top=0;left=0;bottom=0;right=0;overflow=hidden;pointerEvents=1;" vertex="1" parent="Opuij0zFXK9TqKXAzzYL-299">
          <mxGeometry x="306" width="80" height="54" as="geometry">
            <mxRectangle width="80" height="54" as="alternateBounds" />
          </mxGeometry>
        </mxCell>
      </root>
    </mxGraphModel>
  </diagram>
</mxfile>
